<?xml version="1.0" encoding="UTF-8" ?>
<!DOCTYPE svg PUBLIC "-//W3C//DTD SVG 1.1//EN" "http://www.w3.org/Graphics/SVG/1.1/DTD/svg11.dtd">
<svg width="917pt" height="317pt" viewBox="0 0 917 317" version="1.1" xmlns="http://www.w3.org/2000/svg">
<g id="#ffffffff">
<path fill="#ffffff" opacity="1.00" d=" M 429.23 98.10 C 437.13 97.86 445.04 97.93 452.96 97.96 C 460.03 97.90 467.15 100.95 471.74 106.38 C 474.63 109.66 475.93 113.94 477.30 118.00 C 478.03 126.21 478.24 135.39 473.38 142.50 C 469.53 148.27 463.09 152.51 456.06 152.83 C 447.11 153.32 438.15 153.00 429.20 152.91 C 429.33 134.64 429.38 116.37 429.23 98.10 Z" />
</g>
<g id="#286cffff">
<path fill="#286cff" opacity="1.00" d=" M 91.40 75.46 C 101.20 53.36 122.91 36.96 146.96 34.03 C 165.04 31.59 183.96 36.49 198.58 47.40 C 220.71 63.68 232.39 93.74 225.21 120.52 C 221.49 136.17 212.45 150.61 199.62 160.38 C 182.50 173.75 158.95 178.55 138.00 172.76 L 136.90 172.42 C 136.74 172.38 136.43 172.29 136.27 172.25 C 128.93 170.44 122.38 166.58 115.94 162.77 C 115.78 162.25 115.47 161.21 115.31 160.69 C 114.74 160.58 113.58 160.37 113.01 160.26 C 111.20 158.88 109.38 157.51 107.80 155.88 C 105.68 153.56 103.36 151.44 101.30 149.07 C 99.43 146.44 97.48 143.85 95.65 141.18 C 95.86 139.36 95.14 137.51 93.34 136.84 C 90.43 131.52 88.34 125.74 86.94 119.85 C 84.21 105.07 84.92 89.22 91.40 75.46 Z" />
</g>
<g id="#303030ff">
<path fill="#303030" opacity="1.00" d=" M 335.75 94.69 C 341.51 86.64 351.33 82.68 360.89 81.57 C 375.01 80.23 389.97 83.86 400.88 93.19 C 400.77 98.40 400.81 103.62 400.78 108.83 C 399.78 108.69 398.79 108.55 397.81 108.41 C 388.45 99.22 374.82 94.80 361.84 96.41 C 355.04 97.11 348.36 101.65 346.48 108.44 C 344.83 115.54 348.82 122.39 354.06 126.88 C 361.54 133.37 370.39 137.98 378.63 143.41 C 387.12 148.57 395.70 154.22 401.36 162.61 C 406.95 170.52 406.73 180.83 405.56 190.03 C 402.72 199.52 395.26 207.65 385.77 210.74 C 367.98 216.51 347.61 212.37 332.83 201.16 C 332.98 196.27 332.87 191.37 332.82 186.48 C 337.02 185.62 339.60 189.42 343.04 190.99 C 353.06 197.11 365.39 200.36 377.01 197.54 C 382.17 196.14 387.47 192.76 389.30 187.53 C 389.90 181.57 390.73 174.47 386.35 169.64 C 384.30 167.30 381.97 165.19 379.41 163.43 C 369.41 156.69 358.90 150.75 348.96 143.94 C 341.77 138.89 334.61 132.65 331.79 124.05 C 329.72 114.30 329.57 103.07 335.75 94.69 Z" />
<path fill="#303030" opacity="1.00" d=" M 412.91 83.63 C 427.94 83.35 442.97 83.30 458.00 83.56 C 469.79 84.04 481.83 89.73 488.13 99.99 C 492.33 106.60 493.29 114.46 494.13 122.06 C 494.64 128.16 492.93 134.07 492.19 140.08 C 488.54 151.55 479.60 161.67 467.88 165.18 C 455.34 169.03 442.09 166.92 429.21 167.81 C 429.30 182.25 429.32 196.68 429.31 211.11 C 423.84 211.27 418.35 211.28 412.88 210.95 C 412.99 168.51 413.00 126.07 412.91 83.63 M 429.23 98.10 C 429.38 116.37 429.33 134.64 429.20 152.91 C 438.15 153.00 447.11 153.32 456.06 152.83 C 463.09 152.51 469.53 148.27 473.38 142.50 C 478.24 135.39 478.03 126.21 477.30 118.00 C 475.93 113.94 474.63 109.66 471.74 106.38 C 467.15 100.95 460.03 97.90 452.96 97.96 C 445.04 97.93 437.13 97.86 429.23 98.10 Z" />
<path fill="#303030" opacity="1.00" d=" M 500.75 83.63 C 505.92 83.27 511.16 83.37 516.34 83.57 C 516.30 121.00 516.41 158.43 516.17 195.86 C 530.59 197.06 545.06 196.12 559.50 196.42 C 559.35 201.36 559.89 206.34 559.32 211.25 C 539.82 211.16 520.31 211.28 500.81 211.22 C 500.74 168.69 500.86 126.16 500.75 83.63 Z" />
<path fill="#303030" opacity="1.00" d=" M 567.49 83.45 C 572.60 83.38 577.72 83.55 582.83 83.34 C 583.26 125.96 582.92 168.60 583.00 211.23 C 577.80 211.04 572.52 211.66 567.39 210.84 C 567.62 168.38 567.45 125.91 567.49 83.45 Z" />
<path fill="#303030" opacity="1.00" d=" M 818.11 83.29 C 823.62 83.45 829.13 83.47 834.65 83.58 C 826.25 111.09 816.73 138.24 807.54 165.49 C 803.74 165.62 799.91 165.23 796.15 165.80 C 796.25 180.89 796.20 195.99 796.26 211.09 C 791.11 211.22 785.96 211.26 780.82 211.22 C 780.80 196.06 780.77 180.89 780.83 165.73 C 776.67 165.44 772.45 165.77 768.34 164.93 C 767.68 160.26 765.77 155.92 764.38 151.45 C 757.48 130.28 750.03 109.28 743.50 88.01 C 741.99 92.87 744.44 98.73 740.77 102.81 C 723.56 128.98 706.46 155.22 689.49 181.55 C 686.77 186.12 683.03 190.17 681.57 195.40 C 701.98 195.93 722.43 195.51 742.86 195.73 C 742.80 200.86 742.86 206.00 742.89 211.13 C 716.12 211.26 689.36 211.26 662.60 211.23 C 662.69 205.52 662.11 199.65 663.01 194.04 C 679.59 169.82 695.25 144.98 711.38 120.46 C 715.62 113.96 720.17 107.64 724.24 101.03 C 724.30 100.49 724.44 99.40 724.51 98.86 C 703.74 98.67 682.93 99.09 662.19 98.49 C 662.37 93.47 662.16 88.44 662.25 83.42 C 694.57 83.40 726.88 83.42 759.20 83.55 C 763.36 96.72 767.55 109.89 772.00 122.97 C 774.32 132.15 778.28 140.86 780.09 150.19 C 785.28 150.83 790.54 150.52 795.77 150.67 C 803.87 128.43 809.86 105.47 818.11 83.29 Z" />
<path fill="#303030" opacity="1.00" d=" M 589.28 97.85 C 589.45 93.04 589.12 88.21 589.46 83.40 C 613.50 83.53 637.56 83.39 661.61 83.42 C 661.63 88.29 661.68 93.17 661.59 98.05 C 652.39 97.93 643.20 97.92 634.01 97.97 C 634.04 118.38 634.02 138.80 633.88 159.22 C 633.52 160.09 633.04 160.88 632.42 161.60 L 633.69 162.24 C 634.48 167.10 633.77 172.07 633.98 176.98 C 633.81 180.64 634.75 184.54 633.01 187.96 C 634.20 190.12 633.91 192.67 634.05 195.06 C 633.96 200.39 634.03 205.76 633.10 211.04 C 628.00 211.46 622.88 211.16 617.78 211.07 C 617.80 173.39 617.84 135.70 617.84 98.02 C 608.32 97.86 598.80 98.08 589.28 97.85 Z" />
<path fill="#303030" opacity="1.00" d=" M 93.34 136.84 C 95.14 137.51 95.86 139.36 95.65 141.18 C 95.18 140.91 94.23 140.37 93.76 140.09 C 93.46 139.03 93.32 137.95 93.34 136.84 Z" />
<path fill="#303030" opacity="1.00" d=" M 101.30 149.07 C 103.36 151.44 105.68 153.56 107.80 155.88 C 105.63 153.61 103.16 151.62 101.30 149.07 Z" />
<path fill="#303030" opacity="1.00" d=" M 113.01 160.26 C 113.58 160.37 114.74 160.58 115.31 160.69 C 115.47 161.21 115.78 162.25 115.94 162.77 C 115.37 162.67 114.22 162.46 113.65 162.36 C 113.49 161.83 113.17 160.78 113.01 160.26 Z" />
<path fill="#303030" opacity="1.00" d=" M 136.27 172.25 C 136.43 172.29 136.74 172.38 136.90 172.42 L 138.00 172.76 C 137.73 174.72 138.63 177.06 137.31 178.75 C 137.26 176.95 137.26 175.15 137.32 173.35 C 137.06 173.08 136.53 172.52 136.27 172.25 Z" />
<path fill="#303030" opacity="1.00" d=" M 138.02 204.06 C 139.24 204.67 139.60 205.64 139.11 206.96 C 137.84 206.37 137.48 205.40 138.02 204.06 Z" />
<path fill="#303030" opacity="1.00" d=" M 138.93 208.05 C 139.23 208.33 139.84 208.89 140.14 209.17 L 139.98 210.04 C 139.72 209.55 139.19 208.55 138.93 208.05 Z" />
<path fill="#303030" opacity="1.00" d=" M 149.39 229.37 C 149.43 229.44 149.53 229.58 149.58 229.65 C 149.53 229.58 149.43 229.44 149.39 229.37 Z" />
</g>
<g id="#ec0000ff">
<path fill="#ec0000" opacity="1.00" d=" M 40.73 154.81 C 50.33 137.40 67.45 124.13 86.94 119.85 C 88.34 125.74 90.43 131.52 93.34 136.84 C 93.32 137.95 93.46 139.03 93.76 140.09 C 94.23 140.37 95.18 140.91 95.65 141.18 C 97.48 143.85 99.43 146.44 101.30 149.07 C 103.16 151.62 105.63 153.61 107.80 155.88 C 109.38 157.51 111.20 158.88 113.01 160.26 C 113.17 160.78 113.49 161.83 113.65 162.36 C 114.22 162.46 115.37 162.67 115.94 162.77 C 122.38 166.58 128.93 170.44 136.27 172.25 C 136.53 172.52 137.06 173.08 137.32 173.35 C 137.26 175.15 137.26 176.95 137.31 178.75 C 137.04 187.19 136.67 195.69 138.02 204.06 C 137.48 205.40 137.84 206.37 139.11 206.96 L 138.93 208.05 C 139.19 208.55 139.72 209.55 139.98 210.04 C 141.79 217.01 145.21 223.54 149.39 229.37 C 149.43 229.44 149.53 229.58 149.58 229.65 C 151.19 232.17 153.04 234.53 155.12 236.67 C 136.32 258.21 103.56 265.58 77.17 254.85 C 54.28 245.95 36.33 224.50 32.95 200.00 C 30.69 184.66 32.95 168.35 40.73 154.81 Z" />
</g>
<g id="#07c100ff">
<path fill="#07c100" opacity="1.00" d=" M 225.21 120.52 C 235.88 122.44 245.60 128.26 253.85 135.18 C 265.38 145.26 273.71 159.02 277.01 174.00 C 278.42 183.38 278.34 192.98 277.24 202.39 C 272.37 227.73 252.71 249.62 227.89 256.85 C 202.43 264.50 172.88 256.57 155.12 236.67 C 153.04 234.53 151.19 232.17 149.58 229.65 C 149.53 229.58 149.43 229.44 149.39 229.37 C 145.21 223.54 141.79 217.01 139.98 210.04 L 140.14 209.17 C 139.84 208.89 139.23 208.33 138.93 208.05 L 139.11 206.96 C 139.60 205.64 139.24 204.67 138.02 204.06 C 136.67 195.69 137.04 187.19 137.31 178.75 C 138.63 177.06 137.73 174.72 138.00 172.76 C 158.95 178.55 182.50 173.75 199.62 160.38 C 212.45 150.61 221.49 136.17 225.21 120.52 Z" />
</g>
</svg>
