<?xml version="1.0" encoding="UTF-8" ?>
<!DOCTYPE svg PUBLIC "-//W3C//DTD SVG 1.1//EN" "http://www.w3.org/Graphics/SVG/1.1/DTD/svg11.dtd">
<svg width="402pt" height="412pt" viewBox="0 0 402 412" version="1.1" xmlns="http://www.w3.org/2000/svg">
<g id="#fdfefdff">
</g>
<g id="#2d6bfbff">
<path fill="#2d6bfb" opacity="1.00" d=" M 121.55 56.55 C 146.21 32.17 183.63 21.70 217.37 29.65 C 260.18 39.33 294.26 78.25 298.41 121.89 C 299.80 133.91 298.89 146.10 296.80 157.98 C 291.51 179.00 280.67 198.88 264.48 213.46 C 248.09 228.18 227.22 238.04 205.21 240.26 C 198.07 240.45 190.92 240.41 183.78 240.24 C 178.39 239.50 173.01 238.64 167.75 237.24 C 149.38 231.81 132.06 222.14 118.72 208.27 C 105.18 194.31 96.06 176.46 91.30 157.68 C 82.88 121.80 94.68 81.84 121.55 56.55 Z" />
</g>
<g id="#eb0302ff">
<path fill="#eb0302" opacity="1.00" d=" M 17.55 224.60 C 29.40 192.19 57.64 165.93 91.30 157.68 C 96.06 176.46 105.18 194.31 118.72 208.27 C 132.06 222.14 149.38 231.81 167.75 237.24 C 160.65 267.93 166.96 301.75 185.91 327.09 C 188.45 330.23 190.74 333.57 193.09 336.86 C 175.75 356.10 150.86 368.30 125.08 370.51 C 75.52 375.14 27.04 339.11 14.62 291.40 C 8.55 269.55 9.62 245.83 17.55 224.60 Z" />
</g>
<g id="#10ba0aff">
<path fill="#10ba0a" opacity="1.00" d=" M 296.80 157.98 C 327.85 165.56 354.32 188.72 367.14 217.85 C 379.85 246.03 379.69 279.66 366.75 307.73 C 352.98 337.88 324.77 361.05 292.42 368.44 C 261.81 375.41 228.37 366.67 204.47 346.48 C 200.56 343.40 197.29 339.57 193.09 336.86 C 190.74 333.57 188.45 330.23 185.91 327.09 C 166.96 301.75 160.65 267.93 167.75 237.24 C 173.01 238.64 178.39 239.50 183.78 240.24 C 190.88 241.08 198.11 241.08 205.21 240.26 C 227.22 238.04 248.09 228.18 264.48 213.46 C 280.67 198.88 291.51 179.00 296.80 157.98 Z" />
</g>
<g id="#a9a982ff">
<path fill="#a9a982" opacity="1.00" d=" M 183.78 240.24 C 190.92 240.41 198.07 240.45 205.21 240.26 C 198.11 241.08 190.88 241.08 183.78 240.24 Z" />
</g>
</svg>
